<?xml version="1.0" standalone="no"?>
<!DOCTYPE svg PUBLIC "-//W3C//DTD SVG 20010904//EN"
 "http://www.w3.org/TR/2001/REC-SVG-20010904/DTD/svg10.dtd">
<svg version="1.0" xmlns="http://www.w3.org/2000/svg"
 width="100.000000pt" height="100.000000pt" viewBox="0 0 100.000000 100.000000"
 preserveAspectRatio="xMidYMid meet">
<metadata>
Created by potrace 1.16, written by Peter Selinger 2001-2019
</metadata>
<g transform="translate(0.000000,100.000000) scale(0.100000,-0.100000)"
fill="#000000" stroke="none">
<path d="M0 665 l0 -335 40 0 40 0 2 293 3 292 292 3 293 2 0 40 0 40 -335 0
-335 0 0 -335z"/>
<path d="M170 500 l0 -330 40 0 40 0 0 290 0 290 290 0 290 0 0 40 0 40 -330
0 -330 0 0 -330z"/>
<path d="M330 335 l0 -335 335 0 335 0 0 335 0 335 -335 0 -335 0 0 -335z
m588 -2 l-3 -248 -247 -3 -248 -2 0 250 0 250 250 0 250 0 -2 -247z"/>
<path d="M629 467 l-33 -65 -60 -7 c-93 -11 -95 -15 -35 -68 l52 -45 -7 -54
c-3 -29 -9 -64 -12 -76 -7 -23 -5 -23 62 11 l69 35 67 -34 c75 -38 74 -39 56
50 l-11 57 53 54 c59 60 60 58 -35 71 l-60 9 -30 57 c-17 31 -33 60 -37 64 -4
3 -22 -23 -39 -59z"/>
</g>
</svg>
