<?xml version="1.0" standalone="no"?>
<!DOCTYPE svg PUBLIC "-//W3C//DTD SVG 20010904//EN"
 "http://www.w3.org/TR/2001/REC-SVG-20010904/DTD/svg10.dtd">
<svg version="1.0" xmlns="http://www.w3.org/2000/svg"
 width="100.000000pt" height="100.000000pt" viewBox="0 0 100.000000 100.000000"
 preserveAspectRatio="xMidYMid meet">
<metadata>
Created by potrace 1.16, written by Peter Selinger 2001-2019
</metadata>
<g transform="translate(0.000000,100.000000) scale(0.100000,-0.100000)"
fill="#000000" stroke="none">
<path d="M0 665 l0 -335 40 0 40 0 2 293 3 292 292 3 293 2 0 40 0 40 -335 0
-335 0 0 -335z"/>
<path d="M170 500 l0 -330 40 0 40 0 0 290 0 290 290 0 290 0 0 40 0 40 -330
0 -330 0 0 -330z"/>
<path d="M330 335 l0 -335 335 0 335 0 0 335 0 335 -335 0 -335 0 0 -335z
m588 -2 l-3 -248 -247 -3 -248 -2 0 250 0 250 250 0 250 0 -2 -247z"/>
<path d="M510 503 c-69 -25 -81 -109 -26 -183 18 -25 63 -72 100 -105 l67 -58
72 71 c69 69 74 72 120 72 35 0 47 4 47 15 0 12 -15 15 -78 15 -74 0 -79 -2
-92 -25 -18 -34 -26 -32 -52 14 -20 34 -25 38 -38 26 -8 -7 -36 -16 -62 -20
-42 -6 -47 -5 -53 16 -11 33 16 51 56 35 28 -10 32 -9 51 17 11 15 23 27 27
27 5 0 16 -18 26 -40 19 -43 29 -49 39 -25 4 11 22 15 71 15 l65 0 0 36 c0 46
-14 70 -50 89 -42 22 -82 19 -124 -10 -20 -13 -36 -20 -36 -15 0 26 -88 48
-130 33z"/>
</g>
</svg>
